<svg xmlns="http://www.w3.org/2000/svg" width="37" height="37" viewBox="0 0 37 37">
  <defs>
    <style>
      .cls-1 {
        fill: #565656;
        fill-rule: evenodd;
      }
    </style>
  </defs>
  <path id="Forma_1" data-name="Forma 1" class="cls-1" d="M261.5,5760a18.5,18.5,0,1,0,18.5,18.5A18.5,18.5,0,0,0,261.5,5760Zm7.523,15.15c0.008,0.16.01,0.32,0.01,0.48a10.37,10.37,0,0,1-15.951,8.73,8.3,8.3,0,0,0,.869.05,7.3,7.3,0,0,0,4.526-1.56,3.644,3.644,0,0,1-3.4-2.53,3.861,3.861,0,0,0,.685.06,3.393,3.393,0,0,0,.96-0.13,3.635,3.635,0,0,1-2.923-3.57c0-.01,0-0.03,0-0.04a3.669,3.669,0,0,0,1.65.45,3.643,3.643,0,0,1-1.128-4.86,10.346,10.346,0,0,0,7.51,3.8,3.536,3.536,0,0,1-.094-0.83,3.645,3.645,0,0,1,6.3-2.49,7.379,7.379,0,0,0,2.314-.88,3.642,3.642,0,0,1-1.6,2.01,7.334,7.334,0,0,0,2.093-.57A7.32,7.32,0,0,1,269.024,5775.15Z" transform="translate(-243 -5760)"/>
</svg>
